<svg xmlns="http://www.w3.org/2000/svg" viewBox="0 0 64 64" role="img" aria-label="Omarchy Archive">
  <rect width="64" height="64" rx="12" fill="#1a1b26"/>
  <g transform="translate(8 8) scale(3.2000)" fill="#9ece6a"><g shape-rendering="crispEdges"><rect x="0" y="0" width="15" height="1"/><rect x="0" y="1" width="1" height="1"/><rect x="7" y="1" width="1" height="1"/><rect x="14" y="1" width="1" height="1"/><rect x="0" y="2" width="1" height="1"/><rect x="2" y="2" width="6" height="1"/><rect x="11" y="2" width="2" height="1"/><rect x="14" y="2" width="1" height="1"/><rect x="0" y="3" width="1" height="1"/><rect x="2" y="3" width="1" height="1"/><rect x="12" y="3" width="1" height="1"/><rect x="14" y="3" width="1" height="1"/><rect x="0" y="4" width="1" height="1"/><rect x="2" y="4" width="1" height="1"/><rect x="12" y="4" width="1" height="1"/><rect x="14" y="4" width="1" height="1"/><rect x="0" y="5" width="1" height="1"/><rect x="2" y="5" width="1" height="1"/><rect x="12" y="5" width="1" height="1"/><rect x="14" y="5" width="1" height="1"/><rect x="0" y="6" width="1" height="1"/><rect x="2" y="6" width="1" height="1"/><rect x="12" y="6" width="1" height="1"/><rect x="14" y="6" width="1" height="1"/><rect x="0" y="7" width="3" height="1"/><rect x="12" y="7" width="1" height="1"/><rect x="14" y="7" width="1" height="1"/><rect x="0" y="8" width="1" height="1"/><rect x="2" y="8" width="1" height="1"/><rect x="12" y="8" width="1" height="1"/><rect x="14" y="8" width="1" height="1"/><rect x="0" y="9" width="1" height="1"/><rect x="2" y="9" width="1" height="1"/><rect x="12" y="9" width="1" height="1"/><rect x="14" y="9" width="1" height="1"/><rect x="0" y="10" width="1" height="1"/><rect x="2" y="10" width="1" height="1"/><rect x="12" y="10" width="1" height="1"/><rect x="14" y="10" width="1" height="1"/><rect x="0" y="11" width="1" height="1"/><rect x="2" y="11" width="1" height="1"/><rect x="12" y="11" width="1" height="1"/><rect x="14" y="11" width="1" height="1"/><rect x="0" y="12" width="1" height="1"/><rect x="2" y="12" width="11" height="1"/><rect x="14" y="12" width="1" height="1"/><rect x="0" y="13" width="1" height="1"/><rect x="7" y="13" width="1" height="1"/><rect x="14" y="13" width="1" height="1"/><rect x="0" y="14" width="8" height="1"/><rect x="9" y="14" width="6" height="1"/></g></g>
</svg>
